<svg width="153" height="89" viewBox="0 0 153 89" fill="none" xmlns="http://www.w3.org/2000/svg">
<g clip-path="url(#clip0_61_1508)">
<path d="M61.6408 33.7937C61.6848 33.7171 61.7179 33.6405 61.7179 33.5638C61.7289 26.1636 61.7399 18.7524 61.7509 11.3412C61.7509 11.2865 61.7399 11.2536 61.7069 11.2208C65.2991 9.0861 71.1392 9.8524 73.6295 13.2679C76.9573 17.8109 69.1447 19.6939 67.0511 22.4197C64.5167 25.7257 66.8969 30.9256 69.3211 33.7828H73.7067C72.3072 32.7647 71.2825 31.3416 70.445 29.7323C69.288 27.4882 67.8886 24.3573 69.4312 21.9708C70.6544 20.077 73.4202 19.3654 75.0951 17.8985C76.6267 16.563 77.8168 14.6801 76.9132 12.6439C76.0207 10.6406 73.6516 9.39262 71.624 8.82337C65.1889 7.02805 59.4149 11.5054 59.1394 11.7353C59.0623 11.79 59.0072 11.8448 58.9631 11.8776C58.9631 12.1075 58.9521 12.3483 58.9411 12.5782C58.9301 19.6501 58.919 26.7219 58.908 33.7828H61.6408V33.7937Z" fill="white"/>
<path d="M84.5604 33.3777C84.8249 33.5529 85.0453 33.6952 85.1885 33.7828C83.1831 33.7828 81.1776 33.7828 79.1721 33.7828C76.197 31.67 73.354 28.8785 73.883 24.9704C74.489 20.493 80.274 19.6938 81.0564 15.4464C82.015 10.1918 76.6598 6.98425 72.153 6.46974C67.3266 5.91144 62.7096 7.2032 58.908 10.0276V8.3198C62.0044 6.48069 65.4754 5.24366 69.0456 4.7182C73.7507 4.02854 79.7892 4.41168 83.0398 8.35264C84.5274 10.148 85.2657 12.8081 84.4723 15.0632C83.734 17.176 81.8498 18.4678 80.1638 19.8033C77.7286 21.73 76.803 24.2369 78.0923 27.2036C79.1942 29.7323 81.4641 31.2978 84.5604 33.3668V33.3777Z" fill="white"/>
<path d="M94.092 33.7937H89.7394C87.1499 30.7176 80.241 30.1921 80.7699 25.1455C81.0454 22.5948 83.4255 21.0294 85.2547 19.5406C87.767 17.5044 88.7918 14.5706 88.0315 11.4069C86.6431 5.55018 80.6817 2.38647 75.0289 2.0909C69.4863 1.79533 63.8446 3.49213 58.908 6.09754V4.7401C68.9574 -0.164207 83.3373 -3.49213 90.092 6.40406C91.6898 8.74674 92.373 11.7134 91.6127 14.4721C90.6871 17.8109 87.8331 18.9604 85.6734 21.3359C82.577 24.7514 85.8607 27.7071 88.9571 29.2945C89.9929 29.8309 91.0948 30.4111 92.0204 31.1226C92.968 31.8451 93.7394 32.71 94.103 33.7937H94.092Z" fill="white"/>
<path d="M12.7711 62.1139C12.7711 59.1034 9.26705 57.746 5.78502 57.746H0V75.6117H2.1377V66.854C4.22031 66.854 6.77674 66.8759 8.44062 68.5289C9.79597 69.8644 10.4461 72.1086 10.4461 75.3818V75.6117H12.7711V75.4256C12.7711 70.8935 11.1072 67.9706 7.83457 66.7007C10.6114 66.2847 12.7711 64.3252 12.7711 62.1139ZM7.71336 65.606C7.16241 65.8468 6.55636 65.9673 5.96133 65.9782H2.1377V58.6436H6.80979C8.37451 58.6874 9.66374 59.4428 10.1706 60.6141C10.953 62.4532 9.85106 64.6865 7.71336 65.5951V65.606Z" fill="white"/>
<path d="M17.7517 57.7351H15.7352V75.6445H17.7517V57.7351Z" fill="white"/>
<path d="M29.2557 74.6593L23.3715 57.7351H20.8151L27.6359 75.6445H30.0601L36.8809 57.7351H35.1509L29.2557 74.6593Z" fill="white"/>
<path d="M39.834 75.6336H52.8255V74.6812H41.8505V67.2262H51.7787V66.2081H41.8505V58.7093H52.8255V57.7569H39.834V75.6336Z" fill="white"/>
<path d="M68.5607 62.1139C68.5607 59.1034 65.0567 57.746 61.5746 57.746H55.7896V75.6117H57.9273V66.854C60.0209 66.854 62.5663 66.8759 64.2302 68.5289C65.5856 69.8644 66.2357 72.1086 66.2357 75.3818V75.6117H68.5607V75.4256C68.5607 70.8935 66.8969 67.9706 63.6242 66.7007C66.401 66.2847 68.5607 64.3252 68.5607 62.1139ZM63.503 65.606C62.952 65.8469 62.346 65.9673 61.7509 65.9782H57.9383V58.6437H62.6104C64.1751 58.6875 65.4644 59.4428 65.9712 60.6141C66.7536 62.4533 65.6517 64.6865 63.514 65.5951L63.503 65.606Z" fill="white"/>
<path d="M71.591 75.6555H73.5965V67.2043H83.5247V66.1862H73.5965V58.6765H84.5825V57.7351H71.591V75.6555Z" fill="white"/>
<path d="M100.318 62.1139C100.318 59.1034 96.8137 57.746 93.3317 57.746H87.5466V75.6117H89.6843V66.854C91.789 66.854 94.3234 66.8759 95.9873 68.5289C97.3426 69.8644 97.9927 72.1086 97.9927 75.3818V75.6117H100.318V75.4256C100.318 70.8935 98.6539 67.9706 95.3812 66.7007C98.158 66.2847 100.318 64.3252 100.318 62.1139ZM95.249 65.606C94.698 65.8469 94.092 65.9673 93.4969 65.9782H89.6843V58.6437H94.3564C95.9211 58.6875 97.2104 59.4428 97.7172 60.6141C98.4996 62.4533 97.3977 64.6865 95.26 65.5951L95.249 65.606Z" fill="white"/>
<path d="M115.083 59.0487L115.039 59.0159C115.039 59.0159 115.006 58.983 114.973 58.9721L114.929 58.9502C113.684 58.1729 112.251 57.7679 110.786 57.7679C106.191 57.7679 102.444 61.7855 102.444 66.7117C102.444 69.5908 103.756 72.3057 105.926 73.9477C106.103 74.1119 106.235 74.2105 106.378 74.2871C106.51 74.3856 106.632 74.4732 106.753 74.5279C106.929 74.6374 107.095 74.725 107.26 74.8016C108.373 75.3599 109.552 75.6445 110.786 75.6445C115.392 75.6445 119.138 71.6379 119.138 66.7117C119.138 63.5699 117.574 60.6251 115.072 59.0487H115.083ZM115.689 69.744C114.687 71.5831 113.243 72.9844 111.612 73.6631C110.268 74.2542 108.88 74.298 107.679 73.7835C107.491 73.6959 107.315 73.5974 107.15 73.4989L107.017 73.4004C104.439 71.6817 103.943 67.3247 105.904 63.7012C106.885 61.8731 108.329 60.4718 109.982 59.7603C110.731 59.4428 111.458 59.2786 112.152 59.2786C112.78 59.2786 113.375 59.399 113.904 59.6289L114.334 59.8588C114.334 59.8588 114.356 59.8697 114.367 59.8697L114.576 60.0121C117.188 61.7526 117.673 66.022 115.689 69.7331V69.744Z" fill="white"/>
<path d="M133.772 73.5865L124.108 57.8007L124.075 57.7351H122.114V75.6555H124.119V59.7931L133.772 75.5351V75.6555H135.777V57.7351H133.772V73.5865Z" fill="white"/>
<path d="M138.741 57.7351V58.7531H144.901V75.6555H146.917V58.7531H153V57.7351H138.741Z" fill="white"/>
<path d="M53.8723 50.6523C53.2553 50.915 52.55 51.0573 51.7677 51.0573C51.0955 51.0573 50.4784 50.9478 49.9165 50.7289C49.3545 50.51 48.8807 50.2034 48.484 49.8093C48.0873 49.4153 47.7678 48.9445 47.5474 48.4081C47.327 47.8717 47.2168 47.2806 47.2168 46.6347V46.6128C47.2168 45.9998 47.327 45.4196 47.5584 44.8831C47.7898 44.3467 48.0983 43.876 48.506 43.471C48.9137 43.0659 49.3876 42.7485 49.9385 42.5076C50.4895 42.2777 51.0955 42.1573 51.7567 42.1573C52.1423 42.1573 52.4949 42.1792 52.8145 42.234C53.134 42.2887 53.4316 42.3653 53.696 42.4638C53.9715 42.5624 54.2249 42.6828 54.4674 42.836C54.7098 42.9893 54.9412 43.1535 55.1616 43.3396L53.9605 44.7737C53.7952 44.6314 53.6299 44.5109 53.4646 44.4015C53.2993 44.292 53.123 44.2044 52.9467 44.1278C52.7704 44.0512 52.5721 43.9964 52.3737 43.9526C52.1644 43.9089 51.944 43.887 51.6905 43.887C51.349 43.887 51.0184 43.9636 50.7209 44.1059C50.4234 44.2482 50.1589 44.4453 49.9275 44.6861C49.6961 44.9269 49.5198 45.2116 49.3986 45.54C49.2664 45.8684 49.2113 46.2077 49.2113 46.58V46.6018C49.2113 46.9959 49.2774 47.3572 49.3986 47.6966C49.5308 48.025 49.7071 48.3205 49.9385 48.5614C50.1699 48.8132 50.4454 48.9993 50.7649 49.1306C51.0845 49.262 51.4371 49.3386 51.8228 49.3386C52.528 49.3386 53.134 49.1635 53.6189 48.8241V47.5871H51.7016V45.956H55.4591V49.6889C55.0183 50.0611 54.4784 50.3895 53.8723 50.6523Z" fill="white"/>
<path d="M58.1257 50.9041V42.2996H60.032V49.1963H64.3515V50.9041H58.1257Z" fill="white"/>
<path d="M75.2824 48.3315C75.051 48.8679 74.7314 49.3386 74.3237 49.7437C73.916 50.1487 73.4312 50.4662 72.8692 50.707C72.3073 50.9369 71.6902 51.0573 71.018 51.0573C70.3459 51.0573 69.7398 50.9369 69.1778 50.707C68.6159 50.4771 68.131 50.1597 67.7233 49.7656C67.3156 49.3715 66.9961 48.9007 66.7757 48.3643C66.5443 47.8279 66.4341 47.2477 66.4341 46.6347V46.6128C66.4341 45.9998 66.5443 45.4196 66.7757 44.8831C67.0071 44.3467 67.3266 43.876 67.7343 43.471C68.142 43.0659 68.6269 42.7485 69.1999 42.5076C69.7618 42.2777 70.3789 42.1573 71.0511 42.1573C71.7232 42.1573 72.3293 42.2777 72.8913 42.5076C73.4532 42.7375 73.9381 43.055 74.3458 43.4491C74.7535 43.8432 75.073 44.3139 75.2934 44.8503C75.5248 45.3867 75.635 45.9669 75.635 46.58V46.6018C75.635 47.2149 75.5248 47.7951 75.2934 48.3315H75.2824ZM73.6406 46.6018C73.6406 46.2296 73.5745 45.8903 73.4532 45.5619C73.321 45.2335 73.1447 44.9488 72.9133 44.6971C72.6819 44.4562 72.3954 44.2592 72.0759 44.1169C71.7563 43.9745 71.4037 43.8979 71.029 43.8979C70.6544 43.8979 70.2908 43.9636 69.9712 44.1059C69.6517 44.2482 69.3762 44.4343 69.1558 44.6861C68.9244 44.9269 68.7481 45.2116 68.6269 45.54C68.4946 45.8684 68.4396 46.2077 68.4396 46.58V46.6018C68.4396 46.974 68.5057 47.3244 68.6269 47.6418C68.7591 47.9702 68.9354 48.2549 69.1668 48.5066C69.3982 48.7475 69.6737 48.9445 69.9932 49.0868C70.3128 49.2292 70.6654 49.3058 71.0511 49.3058C71.4367 49.3058 71.7783 49.2401 72.0979 49.0978C72.4174 48.9555 72.6929 48.7694 72.9243 48.5176C73.1557 48.2768 73.332 47.9921 73.4532 47.6637C73.5855 47.3353 73.6406 46.9959 73.6406 46.6237V46.6018Z" fill="white"/>
<path d="M85.7175 49.5795C85.5632 49.875 85.3428 50.1159 85.0674 50.3129C84.7809 50.51 84.4393 50.6523 84.0426 50.7508C83.6459 50.8493 83.2051 50.8931 82.7203 50.8931H78.6102V42.2887H82.6211C83.5137 42.2887 84.2079 42.4857 84.7147 42.8908C85.2216 43.2958 85.4751 43.8322 85.4751 44.511V44.5328C85.4751 44.7737 85.442 44.9926 85.3869 45.1897C85.3318 45.3867 85.2437 45.5509 85.1445 45.7042C85.0453 45.8574 84.9241 45.9888 84.7919 46.1092C84.6596 46.2296 84.5164 46.3172 84.3511 46.4048C84.847 46.5909 85.2437 46.8536 85.5302 47.1711C85.8167 47.4995 85.9599 47.9483 85.9599 48.5176V48.5395C85.9599 48.9336 85.8828 49.2729 85.7285 49.5685L85.7175 49.5795ZM83.5798 44.8394C83.5798 44.5547 83.4696 44.3358 83.2602 44.1825C83.0509 44.0293 82.7313 43.9526 82.3346 43.9526H80.4504V45.7699H82.2024C82.6211 45.7699 82.9627 45.6932 83.2051 45.5509C83.4476 45.4086 83.5798 45.1787 83.5798 44.8613V44.8394ZM84.0646 48.2877C84.0646 48.0031 83.9544 47.7732 83.734 47.609C83.5137 47.4448 83.15 47.3572 82.6542 47.3572H80.4504V49.2511H82.7203C83.139 49.2511 83.4696 49.1744 83.712 49.0212C83.9544 48.8679 84.0756 48.638 84.0756 48.3096V48.2877H84.0646Z" fill="white"/>
<path d="M95.2049 50.9041L94.4115 48.9774H90.7532L89.9598 50.9041H88.0204L91.7339 42.234H93.4969L97.2104 50.9041H95.2159H95.2049ZM92.5823 44.511L91.4364 47.3025H93.7394L92.5934 44.511H92.5823Z" fill="white"/>
<path d="M99.5685 50.9041V42.2996H101.475V49.1963H105.794V50.9041H99.5685Z" fill="white"/>
</g>
<defs>
<clipPath id="clip0_61_1508">
<rect width="153" height="89" fill="white"/>
</clipPath>
</defs>
</svg>
